<svg width="37" height="41" viewBox="0 0 37 41" fill="none" xmlns="http://www.w3.org/2000/svg">
<g clip-path="url(#clip0_748_48)">
<path d="M8.64999 0V10.29H22.5V25C22.505 25.0933 22.505 25.1867 22.5 25.28V25.34C22.5009 26.3764 22.3664 27.4085 22.1 28.41C21.7468 29.3652 21.1804 30.2274 20.444 30.9309C19.7075 31.6344 18.8204 32.1608 17.85 32.47C17.1988 32.1462 16.6152 31.7017 16.13 31.16C14.83 29.72 14.2 27.7 14.2 25V24H-1.31591e-05V25C-0.0800192 27.8898 0.54463 30.7556 1.81999 33.35C1.86 33.4483 1.91028 33.5422 1.96999 33.63L2.01999 33.72C3.44323 36.0678 5.52183 37.9483 7.99999 39.13H8.10999C8.19607 39.1783 8.28646 39.2185 8.37999 39.25C10.1788 40.0569 12.1285 40.4727 14.1 40.47H21.42C24.5758 40.5815 27.6979 39.7906 30.42 38.19C30.5355 38.1215 30.6457 38.0446 30.75 37.96C31.8175 37.2239 32.7768 36.342 33.6 35.34L33.85 35.02C33.9289 34.9242 34.0024 34.8241 34.07 34.72C35.9193 31.8253 36.834 28.432 36.69 25V0H8.64999ZM15.79 32.79C14.0129 32.7874 12.3093 32.0809 11.0517 30.8253C9.79423 29.5697 9.08527 27.8671 9.07999 26.09V25H13.19C13.0349 27.4694 13.8129 29.9071 15.37 31.83C15.6697 32.1772 16.0049 32.4923 16.37 32.77C16.21 32.78 16 32.79 15.79 32.79ZM34.69 25C34.8206 28.0389 34.0142 31.0446 32.38 33.61C32.3625 33.6471 32.3388 33.6809 32.31 33.71L32.25 33.79C32.18 33.88 32.11 33.96 32.04 34.06C31.3169 34.9327 30.4754 35.7001 29.54 36.34L29.4 36.44H29.35C27.7671 37.4105 25.9934 38.0279 24.15 38.25C25.0402 37.7103 25.8598 37.062 26.59 36.32C29.29 33.6 30.66 29.76 30.66 24.9V8.29H16.74V2H34.74L34.69 25Z" fill="#52525B" fill-opacity="0.956863"/>
</g>
<defs>
<clipPath id="clip0_748_48">
<rect width="36.69" height="40.52" fill="white"/>
</clipPath>
</defs>
</svg>
